<svg width="90" height="175" viewBox="0 0 90 175" fill="none" xmlns="http://www.w3.org/2000/svg">
<path d="M2.52257 2.47842C33.6915 9.78138 27.9891 7.84413 52.2598 27.4033C57.803 31.8704 66.2503 37.675 67.8304 43.8105C70.1621 52.8646 50.5484 74.4481 39.514 62.5287C32.3828 54.8256 34.559 44.7366 46.2372 44.4866C65.3886 44.0766 79.6093 60.7197 84.666 73.5258C90.2332 87.6247 83.8553 100.333 68.0718 105.499C60.8614 107.859 49.7854 103.667 56.4978 96.7813C70.3042 82.619 83.4925 106.32 80.735 117.126C75.7681 136.59 43.8704 156.633 16.0447 146.292C7.34473 143.058 10.4222 140.744 14.2625 139.371C18.1592 137.979 28.1316 131.967 25.392 134.478C20.6027 138.867 14.8482 139.8 8.36871 141.578C0.0113793 143.873 16.7202 156.503 21.5193 160.758C24.0387 162.991 27.6087 167.543 28.1335 170.404C29.17 176.056 19.981 159.879 18.5272 154.234" stroke="black" stroke-width="5" stroke-linecap="round" stroke-linejoin="round"/>
</svg>
