<svg width="184" height="87" viewBox="0 0 184 87" fill="none" xmlns="http://www.w3.org/2000/svg">
<path d="M2.00015 36.0352C3.42035 22.1395 2.8636 4.56141 20.0032 2.10874C28.1475 0.943283 38.4818 9.40914 40.9955 16.526C43.0806 22.4293 47.7778 29.0032 43.3777 35.1143C39.9216 39.9144 33.8658 42.0309 28.3342 39.2512C12.6258 31.3573 28.1976 14.4659 38.5612 12.271C52.7067 9.27514 81.7106 35.31 74.7369 50.4291C68.7577 63.3921 56.577 52.628 59.9571 41.7103C64.7118 26.3524 73.3627 22.2321 89.643 29.5255C102.355 35.2202 106.84 52.9444 103.563 64.6777C102.882 67.1146 102.86 82.1447 101 81.4339C82.6434 74.4203 97.7372 46.0749 111.646 43.2425C127.628 39.9881 143.835 36.8777 158.513 44.3536C166.407 48.3738 185.604 66.6221 180.361 59.4817C173.801 50.546 165.754 37.875 165.642 26.2296C165.609 22.7645 165.236 11.7016 166.064 22.2407C166.916 33.0947 167.414 42.6751 170.137 52.6508C170.743 54.8708 174.738 56.6803 176.428 58.0604C177.859 59.2294 170.904 59.9139 170.139 60.1508C163.536 62.1966 158.799 67.1014 154.675 72.4434C150.995 77.2114 147.628 84.6459 143.212 84.4016" stroke="black" stroke-width="4" stroke-linecap="round" stroke-linejoin="round"/>
</svg>
